<?xml version="1.0" standalone="no"?>
<!DOCTYPE svg PUBLIC "-//W3C//DTD SVG 20010904//EN"
 "http://www.w3.org/TR/2001/REC-SVG-20010904/DTD/svg10.dtd">
<svg version="1.0" xmlns="http://www.w3.org/2000/svg"
 width="500.000000pt" height="500.000000pt" viewBox="0 0 500.000000 500.000000"
 preserveAspectRatio="xMidYMid meet">
<metadata>
Created by potrace 1.14, written by Peter Selinger 2001-2017
</metadata>
<g transform="translate(0.000000,500.000000) scale(0.100000,-0.100000)"
fill="#000000" stroke="none">
<path d="M955 4418 c-3 -7 -4 -875 -3 -1928 l3 -1915 393 -3 392 -2 0 845 0
845 760 0 760 0 0 -845 0 -845 390 0 390 0 0 1930 0 1930 -390 0 -390 0 0
-760 0 -760 -760 0 -760 0 0 760 0 760 -390 0 c-303 0 -392 -3 -395 -12z"/>
</g>
</svg>
